<?xml version="1.0" standalone="no"?>
<!DOCTYPE svg PUBLIC "-//W3C//DTD SVG 20010904//EN"
 "http://www.w3.org/TR/2001/REC-SVG-20010904/DTD/svg10.dtd">
<svg version="1.0" xmlns="http://www.w3.org/2000/svg"
 width="406.000000pt" height="406.000000pt" viewBox="0 0 406.000000 406.000000"
 preserveAspectRatio="xMidYMid meet">

<g transform="translate(0.000000,406.000000) scale(0.100000,-0.100000)"
fill="#000000" stroke="none">
<path d="M0 2030 l0 -2030 2030 0 2030 0 0 2030 0 2030 -2030 0 -2030 0 0
-2030z m1988 1583 c-16 -2 -40 -2 -55 0 -16 2 -3 4 27 4 30 0 43 -2 28 -4z
m140 0 c-10 -2 -28 -2 -40 0 -13 2 -5 4 17 4 22 1 32 -1 23 -4z m-285 -10 c-7
-2 -21 -2 -30 0 -10 3 -4 5 12 5 17 0 24 -2 18 -5z m-76 -9 c-3 -3 -12 -4 -19
-1 -8 3 -5 6 6 6 11 1 17 -2 13 -5z m-50 -10 c-3 -3 -12 -4 -19 -1 -8 3 -5 6
6 6 11 1 17 -2 13 -5z m638 -97 c137 -35 251 -78 354 -133 388 -209 687 -604
770 -1017 11 -51 22 -120 25 -153 6 -55 5 -62 -12 -66 -18 -5 -20 2 -26 66 -4
39 -18 119 -32 178 l-26 107 -29 -6 c-18 -3 -41 0 -56 8 -22 12 -27 11 -38 -4
-7 -9 -22 -17 -35 -17 -22 0 -23 2 -16 78 6 75 5 77 -19 89 -23 10 -26 9 -32
-15 -4 -16 -2 -27 5 -30 7 -2 12 -25 12 -54 0 -39 -3 -48 -12 -40 -18 14 -81
3 -74 -13 3 -8 -1 -18 -8 -24 -17 -14 -139 237 -162 336 -23 94 -17 107 43
100 40 -4 52 -1 77 20 16 13 42 27 57 30 34 6 35 10 12 35 -15 16 -37 18 -265
18 -171 0 -248 3 -248 11 0 7 73 10 240 7 132 -2 240 0 240 3 0 4 -40 44 -88
90 -505 481 -1268 532 -1821 122 -145 -109 -293 -268 -380 -409 -36 -59 -37
-64 -15 -64 21 0 84 -63 84 -85 0 -9 16 -22 38 -32 20 -8 45 -22 55 -31 9 -8
18 -13 20 -11 78 113 74 112 361 117 187 4 237 2 231 -8 -6 -9 -53 -11 -201
-6 l-194 5 37 -38 c21 -22 49 -54 64 -71 25 -32 25 -32 57 -16 36 18 69 20
107 6 23 -9 32 -6 58 16 27 23 38 26 83 21 60 -6 70 -1 79 38 24 98 86 135
228 135 113 0 149 -12 195 -64 29 -33 36 -36 67 -30 28 5 39 15 64 59 52 92
138 120 222 73 l39 -22 28 26 c15 14 36 30 47 35 35 18 118 23 155 10 29 -10
35 -17 32 -37 -1 -18 0 -21 7 -11 7 11 11 10 19 -6 12 -22 -9 -99 -33 -117 -7
-6 -25 -40 -40 -76 -14 -36 -29 -71 -32 -79 -5 -10 -2 -12 8 -7 8 4 6 1 -3 -7
-10 -8 -15 -16 -13 -19 3 -3 -2 -11 -12 -19 -15 -13 -16 -12 -9 6 4 11 22 63
41 116 l33 96 -28 32 c-33 35 -38 36 -86 16 -30 -12 -34 -17 -24 -34 8 -15 5
-33 -11 -76 -11 -31 -19 -58 -17 -61 3 -2 17 29 31 69 16 41 25 58 22 38 -3
-18 -6 -59 -6 -90 -1 -31 -4 -46 -6 -33 -5 26 -23 30 -23 5 -1 -26 -26 -58
-33 -41 -3 7 -6 1 -6 -14 -1 -43 -16 -40 -16 3 0 22 5 41 13 44 6 2 12 -1 12
-7 0 -6 3 -9 6 -5 3 3 3 10 -1 16 -10 18 -41 -5 -54 -39 -6 -16 -16 -43 -22
-60 -6 -16 -15 -30 -19 -30 -4 0 -22 28 -40 63 -19 34 -39 67 -46 72 -7 6 -18
29 -24 53 -10 39 -13 42 -44 42 -19 0 -39 -7 -46 -15 -11 -14 -9 -14 16 -5 29
9 29 9 7 -6 -23 -17 -33 -41 -11 -28 8 5 9 2 5 -10 -4 -10 -7 -24 -7 -32 0 -8
-4 -14 -10 -14 -5 0 -7 8 -3 18 3 9 3 14 -2 10 -4 -4 -9 -18 -10 -30 -5 -48
-7 -52 -14 -28 -4 16 -14 25 -26 25 -15 0 -27 -17 -47 -65 -27 -67 -35 -96
-18 -70 9 13 10 13 10 0 0 -16 -57 -120 -65 -120 -3 0 4 18 14 39 20 39 20 39
1 34 -11 -3 -20 -9 -20 -14 0 -11 -53 0 -61 13 -12 18 -46 -15 -67 -64 l-21
-50 -153 7 c-217 8 -233 11 -246 40 -7 14 -16 25 -21 25 -5 0 -15 16 -21 35
-13 39 -34 45 -66 19 -10 -8 -13 -13 -6 -9 7 4 12 0 12 -9 0 -9 -4 -16 -10
-16 -5 0 -9 -3 -8 -7 3 -15 -14 -63 -23 -63 -8 0 -14 18 -22 70 -3 14 -5 4 -6
-22 l-1 -48 -41 0 c-36 0 -41 3 -55 35 -7 19 -14 46 -14 60 0 16 -12 39 -30
57 -26 25 -34 28 -58 20 -25 -8 -27 -12 -27 -69 -1 -35 -6 -68 -14 -77 -7 -9
-10 -16 -6 -16 5 0 1 -8 -8 -18 -10 -10 -18 -31 -19 -46 -2 -26 -62 -85 -74
-73 -3 3 12 17 33 31 43 29 37 34 -13 10 -30 -14 -37 -24 -36 -44 0 -3 -17 -5
-39 -6 -26 0 -46 -8 -64 -24 l-25 -23 0 59 0 60 86 2 c97 2 112 10 145 74 15
30 16 37 4 42 -9 3 -12 0 -9 -8 3 -7 -2 -13 -10 -13 -8 0 -17 13 -20 29 -7 35
-22 36 -30 2 -7 -28 -21 -23 -28 11 l-5 20 -7 -20 c-23 -63 -22 -63 -47 5
l-23 65 -9 -37 c-5 -20 -17 -44 -28 -54 -18 -16 -19 -16 -19 4 0 12 5 22 11
22 6 0 3 7 -6 16 -9 10 -22 13 -33 9 -12 -5 -13 -9 -4 -12 6 -3 12 -9 12 -14
0 -6 -4 -7 -10 -4 -5 3 -10 -3 -10 -14 0 -12 -4 -21 -10 -21 -5 0 -10 6 -10
14 0 7 -6 19 -14 25 -11 9 -15 7 -20 -11 -5 -19 -44 -48 -66 -48 -4 0 -13 19
-20 43 -11 36 -14 39 -21 22 -4 -11 -8 -31 -9 -45 l-1 -25 -13 24 -14 25 -5
-30 c-4 -16 -9 -46 -13 -68 l-7 -39 72 7 71 7 0 -64 c0 -48 -4 -68 -17 -79
-17 -15 -97 -35 -117 -29 -5 1 -12 -3 -16 -10 -32 -50 -40 108 -15 257 33 186
138 431 256 599 118 165 319 348 487 442 147 82 335 149 488 173 33 5 147 7
254 5 168 -3 209 -6 295 -28z m-1055 -52 c0 -2 -10 -9 -22 -15 -22 -11 -22
-10 -4 4 21 17 26 19 26 11z m-200 -129 c0 -2 -8 -10 -17 -17 -16 -13 -17 -12
-4 4 13 16 21 21 21 13z m-50 -40 c0 -2 -8 -10 -17 -17 -16 -13 -17 -12 -4 4
13 16 21 21 21 13z m-90 -79 c0 -2 -19 -21 -42 -42 l-43 -40 40 43 c36 39 45
47 45 39z m569 -53 c12 -15 21 -38 21 -51 0 -32 -42 -73 -75 -73 -29 0 -75 40
-75 65 0 22 27 72 42 78 33 14 67 6 87 -19z m-679 -68 c0 -2 -8 -10 -17 -17
-16 -13 -17 -12 -4 4 13 16 21 21 21 13z m1806 -45 c-7 -10 -202 -9 -212 2 -4
4 43 7 105 7 62 0 110 -4 107 -9z m-356 -111 c0 -7 -142 -10 -405 -10 -263 0
-405 3 -405 10 0 7 142 10 405 10 263 0 405 -3 405 -10z m503 -41 c6 -24 -1
-49 -14 -49 -5 0 -9 16 -9 35 0 38 14 47 23 14z m-178 -129 c-3 -5 -16 -10
-28 -9 -21 0 -21 1 -2 9 28 12 37 12 30 0z m110 -106 c-8 -27 -22 -58 -30 -69
-16 -19 -16 -19 -5 3 6 13 18 46 26 74 9 27 17 48 20 46 2 -3 -3 -27 -11 -54z
m-244 -176 c-21 -44 -21 -36 0 42 10 33 14 39 17 23 2 -12 -6 -41 -17 -65z
m205 27 c-1 -9 -24 -39 -52 -67 -36 -38 -42 -47 -20 -33 70 43 97 57 102 53 2
-3 -21 -22 -52 -42 -31 -21 -53 -40 -50 -43 3 -4 -3 -13 -14 -20 -11 -8 -18
-18 -15 -23 3 -5 0 -12 -6 -16 -8 -5 -9 -3 -4 6 5 8 3 11 -6 8 -8 -3 -13 -11
-11 -17 1 -6 -3 -11 -9 -11 -5 0 -7 -5 -3 -12 4 -7 3 -8 -5 -4 -6 4 -9 11 -6
16 3 4 -4 6 -15 3 -11 -3 -23 -9 -26 -14 -3 -5 3 -6 13 -2 15 6 16 5 3 -8 -16
-18 -42 -21 -33 -5 4 6 -3 3 -15 -8 -12 -10 -19 -22 -17 -26 6 -9 -39 -40 -57
-40 -7 1 3 9 22 20 47 26 30 25 -21 -1 -31 -15 -47 -18 -67 -11 -17 5 -40 5
-60 -1 -24 -8 -45 -7 -85 5 -50 16 -171 42 -232 52 -67 10 109 -4 218 -18 153
-20 208 -14 272 28 49 32 159 137 161 153 2 23 29 63 42 63 12 0 9 -7 -9 -27
l-24 -28 27 24 c15 13 25 27 22 32 -3 6 20 26 33 29 1 0 0 -7 -1 -15z m-536
-57 c0 -19 -2 -20 -10 -8 -13 19 -13 30 0 30 6 0 10 -10 10 -22z m1229 5 c0
-10 -4 -27 -9 -38 -7 -17 -9 -17 -9 -2 -1 28 -17 19 -28 -15 l-10 -33 -4 43
c-4 39 -3 42 21 43 l25 1 -25 8 c-24 8 -23 8 8 9 24 1 32 -3 31 -16z m-2243
-19 c-4 -9 -9 -15 -11 -12 -3 3 -3 13 1 22 4 9 9 15 11 12 3 -3 3 -13 -1 -22z
m1229 -9 c-17 -14 -24 -24 -16 -25 10 0 7 -7 -9 -25 -16 -17 -19 -25 -10 -25
20 0 -64 -78 -96 -91 -49 -18 -48 7 3 47 69 56 88 74 78 74 -5 0 6 16 25 35
19 19 39 35 44 35 6 0 -2 -11 -19 -25z m825 5 c0 -11 -2 -20 -4 -20 -2 0 -6 9
-9 20 -3 11 -1 20 4 20 5 0 9 -9 9 -20z m109 -22 c-1 -45 -3 -44 -14 7 l-7 30
-17 -43 -17 -43 -12 26 c-23 50 -16 65 28 65 l40 0 -1 -42z m-231 -30 c-2 -13
-9 -29 -16 -38 -7 -8 -22 -26 -33 -40 l-20 -25 7 35 c4 19 18 47 33 62 31 34
33 34 29 6z m-359 8 c-10 -9 -89 -46 -89 -41 0 6 72 44 84 45 5 0 7 -2 5 -4z
m868 -58 c-3 -8 -6 -5 -6 6 -1 11 2 17 5 13 3 -3 4 -12 1 -19z m-589 -34 c1
-20 -1 -34 -5 -31 -3 4 -13 1 -22 -5 -13 -10 -14 -10 -3 2 19 22 14 35 -7 16
-11 -10 -18 -27 -16 -38 3 -12 -4 -28 -18 -39 -12 -10 -17 -18 -10 -19 6 0 14
6 16 13 4 9 6 9 6 0 1 -13 -37 -38 -46 -30 -2 3 1 16 8 29 l12 23 -24 -20
c-13 -12 -33 -27 -43 -35 -18 -14 -18 -14 -9 5 17 31 60 68 72 61 5 -4 13 -1
17 5 5 8 3 9 -7 4 -7 -5 6 14 30 43 24 29 45 52 46 52 1 0 2 -16 3 -36z
m-2531 -36 c-3 -7 -5 -2 -5 12 0 14 2 19 5 13 2 -7 2 -19 0 -25z m3130 0 c-3
-8 -6 -5 -6 6 -1 11 2 17 5 13 3 -3 4 -12 1 -19z m-1037 -3 c0 -8 -82 -47 -87
-41 -3 3 14 14 38 25 52 23 49 22 49 16z m-1720 -71 c0 -30 -4 -53 -8 -50 -5
3 -21 -2 -36 -10 -16 -7 -30 -14 -32 -14 -2 0 -4 29 -4 65 l0 65 40 0 40 0 0
-56z m587 39 c28 -6 40 -33 12 -28 -10 2 -19 0 -19 -6 0 -18 -52 -9 -96 17
-24 14 -44 28 -44 31 0 6 109 -4 147 -14z m176 -4 c27 -5 55 -16 63 -24 13
-12 9 -19 -30 -55 -25 -23 -47 -41 -51 -40 -3 0 -17 -13 -31 -30 -14 -17 -36
-30 -48 -30 -19 0 -64 -15 -157 -51 -14 -5 -31 -21 -37 -34 -8 -18 -20 -25
-40 -25 -16 0 -47 -13 -69 -29 -28 -21 -44 -26 -56 -20 -10 6 -18 5 -22 -1 -3
-5 -1 -10 6 -10 7 0 9 -3 6 -7 -4 -3 -2 -12 4 -19 16 -19 2 -34 -32 -34 -17 0
-43 -7 -59 -15 -16 -8 -35 -12 -43 -9 -8 3 -18 1 -22 -5 -14 -23 -85 -9 -85
16 0 13 -3 13 -16 2 -12 -10 -20 -10 -34 -1 -17 10 -18 9 -13 -6 5 -13 1 -12
-19 6 -21 19 -26 20 -31 8 -4 -9 1 -17 14 -21 10 -4 17 -11 14 -16 -4 -5 19
-9 52 -9 54 -1 56 -2 38 -16 -11 -8 -25 -12 -31 -10 -7 3 -10 -3 -7 -14 6 -21
-28 -47 -68 -52 -14 -2 -38 -13 -53 -25 -40 -32 -64 -37 -91 -19 -24 16 -63
111 -50 124 3 4 20 -1 36 -11 17 -9 45 -17 62 -17 26 1 18 5 -37 24 -37 12
-72 29 -76 37 -4 8 -11 35 -14 60 l-7 47 73 7 c40 4 78 11 83 15 6 5 30 10 55
13 25 2 67 12 95 21 71 25 236 66 263 66 12 0 22 4 22 9 0 5 15 13 33 16 109
24 313 113 324 142 4 11 -3 24 -22 39 l-29 23 45 -5 c24 -3 66 -10 92 -15z
m1212 -14 c-16 -13 -31 -22 -34 -20 -5 6 41 44 54 44 6 0 -3 -11 -20 -24z
m-2358 -72 c-2 -16 -4 -3 -4 27 0 30 2 43 4 28 2 -16 2 -40 0 -55z m1693 67
c8 -5 11 -10 5 -10 -5 0 -17 5 -25 10 -8 5 -10 10 -5 10 6 0 17 -5 25 -10z
m-382 -70 c-22 -31 -121 -123 -547 -510 -197 -180 -384 -371 -412 -422 -9 -17
52 -18 1226 -18 l1237 0 -33 43 c-65 83 -348 363 -571 564 -282 254 -359 318
-439 366 -35 20 -59 37 -54 37 50 0 399 -266 693 -528 l153 -137 327 -5 c282
-4 327 -7 327 -20 0 -13 -41 -15 -302 -18 -263 -2 -302 -4 -297 -17 5 -13 48
-15 291 -15 l284 0 -3 -22 -3 -23 -254 -3 c-222 -2 -252 -4 -241 -17 10 -12
51 -15 241 -15 222 0 229 -1 229 -20 0 -11 -6 -20 -12 -21 -7 0 -98 0 -202 1
-151 1 -187 -1 -184 -12 4 -10 42 -14 154 -15 166 -3 194 -7 194 -27 0 -22
-24 -26 -162 -26 -99 0 -129 -3 -126 -12 3 -9 35 -15 94 -18 70 -4 89 -8 89
-20 0 -12 -17 -16 -83 -18 -78 -3 -83 -4 -77 -23 14 -44 -6 -49 -192 -49 -135
0 -174 -3 -171 -12 4 -10 56 -14 205 -16 162 -2 203 -5 213 -17 7 -8 10 -21 7
-30 -5 -12 -42 -15 -224 -17 -313 -4 -281 -21 52 -29 268 -6 294 -10 282 -43
-5 -14 -44 -16 -289 -18 -359 -4 -381 -21 -36 -28 227 -5 243 -6 246 -24 2
-10 -2 -22 -10 -27 -7 -5 -125 -9 -261 -9 -194 0 -248 -3 -245 -12 4 -10 53
-14 184 -18 171 -5 179 -6 179 -25 0 -20 -8 -20 -1207 -23 l-1208 -2 0 25 0
25 169 0 c156 0 198 6 178 27 -3 3 -115 4 -249 4 -134 -1 -249 3 -256 8 -8 4
-12 17 -10 27 3 18 18 19 246 22 205 2 242 5 242 17 0 13 -42 15 -282 17 -279
3 -283 3 -286 24 -3 20 3 21 89 27 51 4 175 7 276 7 156 0 183 2 183 15 0 13
-31 15 -215 15 -183 0 -216 2 -221 15 -4 8 -1 22 6 30 10 12 48 15 217 15 182
0 204 2 201 16 -3 14 -25 16 -173 15 -93 -1 -176 3 -184 8 -9 6 -11 18 -7 35
l6 25 -82 3 c-66 2 -83 6 -83 18 0 12 18 16 89 18 51 2 96 8 105 15 11 10 -17
13 -135 17 -141 5 -149 6 -149 25 0 19 8 20 169 25 123 4 171 8 174 18 3 9
-41 12 -197 12 -194 0 -201 1 -201 20 0 19 7 20 229 20 190 0 231 3 241 15 11
13 -19 15 -241 17 l-254 3 -3 23 -3 22 279 0 c236 0 281 2 292 15 11 13 -22
15 -288 15 -248 0 -301 2 -305 14 -3 8 -3 17 0 20 4 3 151 6 327 6 l321 0 80
71 c44 40 184 159 310 266 277 235 345 298 346 327 2 21 2 21 6 -1 2 -13 -5
-35 -19 -53z m772 50 c52 -5 125 -11 162 -12 53 -2 65 -5 56 -15 -8 -10 10
-13 90 -13 66 0 103 -4 108 -12 5 -8 2 -9 -10 -5 -12 5 -15 3 -9 -6 12 -19 12
-36 0 -32 -7 2 -49 6 -94 10 -82 6 -83 6 -83 -17 -1 -20 -3 -18 -15 10 -14 31
-17 33 -52 26 -43 -7 -63 -20 -63 -39 0 -8 -11 -22 -25 -32 -25 -18 -24 -18
90 -12 63 3 118 8 121 12 4 4 -2 7 -14 7 -13 0 -22 6 -22 15 0 20 21 19 174
-10 72 -14 156 -28 186 -33 l55 -7 3 -83 c3 -79 2 -83 -22 -91 -13 -6 -47 -30
-75 -55 -61 -54 -94 -59 -149 -21 -20 14 -49 25 -64 25 -16 0 -28 4 -28 8 0 4
41 32 91 62 87 53 133 90 112 90 -6 0 -16 -7 -23 -15 -7 -8 -17 -15 -22 -15
-6 0 -24 -10 -41 -22 -18 -13 -35 -23 -38 -23 -3 0 -13 -8 -23 -18 -27 -26
-53 -38 -71 -31 -9 4 -14 13 -10 22 4 11 2 12 -7 5 -7 -5 -24 -7 -38 -3 -23 6
-24 7 -6 17 16 9 15 11 -14 16 -24 5 -31 11 -26 22 3 9 2 13 -3 10 -13 -7 -61
15 -61 29 0 6 -25 22 -55 36 -30 14 -55 28 -55 33 0 4 -7 7 -16 7 -8 0 -12 5
-9 10 3 6 -2 10 -13 10 -10 0 -37 13 -58 28 -21 15 -78 48 -126 72 -48 24 -84
48 -82 52 5 8 113 4 274 -12z m1067 -22 c-3 -8 -6 -5 -6 6 -1 11 2 17 5 13 3
-3 4 -12 1 -19z m-2367 -13 c0 -14 -6 -26 -12 -27 -7 0 -17 -2 -23 -2 -5 -1
-16 -5 -22 -9 -9 -5 -13 -2 -13 8 0 13 -2 14 -14 3 -8 -7 -12 -16 -9 -20 8
-15 -32 6 -47 24 -13 15 -21 17 -50 8 -19 -5 -50 -10 -69 -10 -22 0 -43 -8
-58 -22 -13 -12 -23 -17 -23 -12 1 37 64 64 152 65 60 1 115 6 181 18 4 0 7
-10 7 -24z m58 3 c-2 -15 -11 -24 -25 -26 -19 -3 -23 1 -23 22 0 21 5 26 26
26 21 0 25 -4 22 -22z m53 12 c20 0 7 -18 -16 -22 -20 -4 -25 -1 -25 14 0 14
5 18 16 14 9 -3 20 -6 25 -6z m1849 -10 c0 -16 -7 -20 -37 -22 l-38 -1 38 -4
c57 -6 44 -19 -20 -21 -88 -1 -102 -4 -58 -11 l40 -7 -53 -5 -52 -4 1 45 c0
25 3 40 5 33 3 -7 11 -10 19 -7 7 3 44 9 82 13 37 5 69 9 71 10 1 0 2 -8 2
-19z m85 10 c-3 -5 1 -10 9 -10 10 0 16 -9 16 -22 0 -21 0 -21 -15 -2 -11 14
-14 15 -15 4 0 -13 -2 -13 -9 -1 -10 16 -4 41 11 41 5 0 6 -4 3 -10z m65 -5
c0 -8 -2 -15 -4 -15 -2 0 -6 7 -10 15 -3 8 -1 15 4 15 6 0 10 -7 10 -15z m64
0 c-4 -8 -17 -15 -30 -15 -15 0 -24 6 -24 15 0 10 10 15 30 15 22 0 28 -4 24
-15z m44 4 c-2 -6 -8 -10 -13 -10 -5 0 -11 4 -13 10 -2 6 4 11 13 11 9 0 15
-5 13 -11z m-460 -49 c0 -25 -5 -40 -13 -40 -8 0 -13 15 -13 40 -1 28 4 40 13
40 9 0 14 -12 13 -40z m-1938 -34 c0 -3 -4 -8 -10 -11 -5 -3 -10 -1 -10 4 0 6
5 11 10 11 6 0 10 -2 10 -4z m-42 -13 c-10 -2 -28 -2 -40 0 -13 2 -5 4 17 4
22 1 32 -1 23 -4z m1019 -25 c-3 -7 -5 -2 -5 12 0 14 2 19 5 13 2 -7 2 -19 0
-25z m650 16 c-3 -3 -12 -4 -19 -1 -8 3 -5 6 6 6 11 1 17 -2 13 -5z m-1809
-33 c-6 -11 -24 -22 -39 -25 -15 -3 -38 -8 -53 -12 -22 -5 -26 -3 -26 15 0 17
6 21 38 22 20 1 43 1 50 0 6 -1 12 3 12 9 0 5 7 10 15 10 12 0 13 -3 3 -19z
m-421 -68 c-2 -16 -4 -5 -4 22 0 28 2 40 4 28 2 -13 2 -35 0 -50z m283 43 c0
-20 -8 -27 -42 -40 -82 -29 -88 -29 -88 -7 0 13 -6 21 -17 21 -15 0 -16 -2 -3
-10 12 -8 11 -10 -7 -10 -16 0 -21 6 -20 20 1 17 8 20 54 20 29 0 53 4 53 9 0
6 15 12 33 14 17 2 33 5 35 5 1 1 2 -9 2 -22z m2629 -2 c22 -5 23 -6 6 -24
-17 -19 -19 -19 -31 -2 -13 16 -13 16 -14 -2 0 -15 -3 -16 -15 -6 -13 11 -14
10 -9 -4 5 -12 2 -15 -12 -10 -12 3 -10 0 5 -9 18 -11 20 -16 10 -20 -8 -3 0
-6 16 -6 35 0 70 23 60 39 -11 18 15 30 68 30 35 0 47 -4 47 -15 0 -11 -12
-15 -45 -15 -26 0 -45 -5 -45 -11 0 -7 15 -9 43 -5 l42 6 -50 -16 c-27 -9 -52
-19 -55 -24 -11 -16 -67 -38 -111 -42 l-47 -5 -4 71 c-3 39 -3 74 -2 77 3 6
103 1 143 -7z m-1319 -55 c0 -19 -5 -29 -15 -29 -15 0 -22 50 -9 63 12 12 24
-4 24 -34z m1557 9 c-3 -7 -5 -2 -5 12 0 14 2 19 5 13 2 -7 2 -19 0 -25z
m-1745 -10 c-8 -8 -9 -4 -5 13 4 13 8 18 11 10 2 -7 -1 -18 -6 -23z m356 1
c-3 -8 -7 -3 -11 10 -4 17 -3 21 5 13 5 -5 8 -16 6 -23z m-1623 -9 c-3 -5 -10
-10 -16 -10 -5 0 -9 5 -9 10 0 6 7 10 16 10 8 0 12 -4 9 -10z m778 -248 c-114
-119 -261 -277 -326 -350 -109 -122 -158 -170 -107 -104 65 83 623 672 637
672 2 0 -89 -98 -204 -218z m1550 -231 c164 -182 222 -250 216 -255 -2 -2 -50
49 -105 113 -103 117 -305 340 -418 462 -33 36 -11 15 49 -45 61 -61 177 -185
258 -275z m-863 294 c0 -63 -1 -65 -26 -65 -24 0 -26 3 -20 31 3 17 6 47 6 65
0 27 4 34 20 34 18 0 20 -7 20 -65z m1527 43 c-3 -8 -6 -5 -6 6 -1 11 2 17 5
13 3 -3 4 -12 1 -19z m-1812 -121 c-17 -40 -31 -51 -19 -14 15 48 27 72 30 61
3 -6 -2 -27 -11 -47z m539 -14 c4 -13 3 -23 -2 -23 -8 0 -33 66 -32 86 1 12
25 -34 34 -63z m-254 -253 l0 -120 -30 0 -30 0 0 113 c0 63 3 117 7 120 3 4
17 7 30 7 23 0 23 -1 23 -120z m-370 -54 c-12 -36 -26 -66 -32 -66 -12 0 -5
32 22 95 29 68 36 48 10 -29z m689 12 c24 -70 25 -78 11 -78 -5 0 -17 26 -26
58 -9 31 -19 63 -21 70 -3 6 -1 12 5 12 6 0 20 -28 31 -62z m-1694 -231 c35
-26 7 -37 -91 -37 -75 0 -94 3 -94 15 0 7 8 19 18 24 26 15 145 13 167 -2z
m2870 0 c35 -26 7 -37 -90 -37 -97 0 -125 11 -90 37 12 8 46 13 90 13 44 0 78
-5 90 -13z m-2890 -92 c0 -17 -8 -20 -59 -23 -62 -3 -83 6 -72 33 5 13 18 15
68 13 55 -3 63 -5 63 -23z m2870 0 c0 -18 -8 -20 -68 -23 -55 -2 -68 0 -74 14
-9 25 16 34 82 32 52 -3 60 -6 60 -23z"/>
<path d="M2753 2754 c-6 -25 -7 -42 -3 -37 9 9 25 83 18 83 -3 0 -9 -21 -15
-46z"/>
<path d="M1948 2393 c7 -3 16 -2 19 1 4 3 -2 6 -13 5 -11 0 -14 -3 -6 -6z"/>
<path d="M686 2171 c-3 -4 6 -6 19 -3 14 2 25 6 25 8 0 8 -39 4 -44 -5z"/>
<path d="M795 2180 c-3 -5 3 -10 15 -10 12 0 18 5 15 10 -3 6 -10 10 -15 10
-5 0 -12 -4 -15 -10z"/>
<path d="M1096 1972 c-3 -5 -1 -14 3 -20 6 -10 10 -10 20 1 9 12 8 16 -3 20
-9 4 -17 3 -20 -1z"/>
<path d="M1050 1950 c0 -6 7 -10 15 -10 8 0 15 2 15 4 0 2 -7 6 -15 10 -8 3
-15 1 -15 -4z"/>
<path d="M2476 2103 c-6 -14 -5 -15 5 -6 7 7 10 15 7 18 -3 3 -9 -2 -12 -12z"/>
<path d="M2580 2100 c-23 -7 -23 -8 -3 -9 12 -1 25 4 28 9 3 6 5 10 3 9 -2 -1
-14 -5 -28 -9z"/>
<path d="M2895 1958 c-23 -24 -25 -30 -10 -24 18 7 40 13 56 15 12 2 52 41 41
41 -6 0 -14 -4 -17 -10 -3 -5 -15 -10 -26 -10 -11 0 -17 5 -14 10 11 18 0 10
-30 -22z"/>
<path d="M3093 1933 c9 -2 23 -2 30 0 6 3 -1 5 -18 5 -16 0 -22 -2 -12 -5z"/>
</g>
</svg>
